<?xml version="1.0" encoding="utf-8"?>
<!-- Generator: Adobe Illustrator 18.0.0, SVG Export Plug-In . SVG Version: 6.00 Build 0)  -->
<!DOCTYPE svg PUBLIC "-//W3C//DTD SVG 1.1//EN" "http://www.w3.org/Graphics/SVG/1.1/DTD/svg11.dtd">
<svg version="1.1" id="Layer_1" xmlns="http://www.w3.org/2000/svg" xmlns:xlink="http://www.w3.org/1999/xlink" x="0px" y="0px"
	 viewBox="0 0 304.6 277.1" enable-background="new 0 0 304.6 277.1" xml:space="preserve">
<g>
	<g>
		<g>
			
				<path fill="none" stroke="#10658C" stroke-width="2.2728" stroke-linecap="round" stroke-linejoin="round" stroke-miterlimit="10" d="
				M160.3,132.6c0,0-32.6-1.6-32.6,29.6V173h20.8v-10.5c0,0-0.9-15.9,11.8-15.9"/>
			
				<path fill="none" stroke="#10658C" stroke-width="2.2728" stroke-linecap="round" stroke-linejoin="round" stroke-miterlimit="10" d="
				M176.4,129.8c-5.3,0-9.7-4.3-9.7-9.7s4.3-9.7,9.7-9.7h21.2v19.3H176.4z"/>
			
				<path fill="none" stroke="#10658C" stroke-width="2.2728" stroke-linecap="round" stroke-linejoin="round" stroke-miterlimit="10" d="
				M204.2,106.3v25.1c0,2.8-2.3,5.1-5.1,5.1h-13.6l-22.1,9.8v-16.4"/>
			
				<path fill="none" stroke="#10658C" stroke-width="2.2728" stroke-linecap="round" stroke-linejoin="round" stroke-miterlimit="10" d="
				M185.8,140.8c1.9,4,0.2,8.8-3.8,10.7s-8.8,0.2-10.7-3.8"/>
			
				<polyline fill="none" stroke="#10658C" stroke-width="2.2728" stroke-linecap="round" stroke-linejoin="round" stroke-miterlimit="10" points="
				204.2,110.5 287.1,110.5 287.1,116.7 204.2,116.7 			"/>
			
				<polyline fill="none" stroke="#10658C" stroke-width="2.2728" stroke-linecap="round" stroke-linejoin="round" stroke-miterlimit="10" points="
				282.7,116.7 282.7,120.9 204.2,120.9 			"/>
			
				<polyline fill="none" stroke="#10658C" stroke-width="2.2728" stroke-linecap="round" stroke-linejoin="round" stroke-miterlimit="10" points="
				285.2,110.5 285.2,105.3 269.5,110.5 			"/>
			
				<path fill="none" stroke="#10658C" stroke-width="2.2728" stroke-linecap="round" stroke-linejoin="round" stroke-miterlimit="10" d="
				M161.9,116.7l-6.7-8.8c0,0,4.5-3.1,10.1,2.6c0,0,2.6-5.2,9.9-5.2s22.4,0,22.4,0"/>
			
				<circle fill="none" stroke="#10658C" stroke-width="2.2728" stroke-linecap="round" stroke-linejoin="round" stroke-miterlimit="10" cx="138.4" cy="158.2" r="3.5"/>
			
				<line fill="none" stroke="#10658C" stroke-width="2.2728" stroke-linecap="round" stroke-linejoin="round" stroke-miterlimit="10" x1="127.6" y1="168.1" x2="148.5" y2="168.1"/>
			
				<line fill="none" stroke="#10658C" stroke-width="4.5456" stroke-linecap="round" stroke-linejoin="round" stroke-miterlimit="10" x1="196.5" y1="120.2" x2="176.5" y2="120.2"/>
		</g>
		<g>
			
				<path fill="none" stroke="#10658C" stroke-width="2.2728" stroke-linecap="round" stroke-linejoin="round" stroke-miterlimit="10" d="
				M176.3,155.1c0.4,2.2,0.6,4.5,0.6,7.1V173h-20.8v-10.5c0,0,0.4-8-3.8-12.7"/>
			
				<path fill="none" stroke="#10658C" stroke-width="2.2728" stroke-linecap="round" stroke-linejoin="round" stroke-miterlimit="10" d="
				M128.2,129.8c5.3,0,9.7-4.3,9.7-9.7s-4.3-9.7-9.7-9.7H107v19.3H128.2z"/>
			
				<line fill="none" stroke="#10658C" stroke-width="2.2728" stroke-linecap="round" stroke-linejoin="round" stroke-miterlimit="10" x1="141.2" y1="137.1" x2="141.2" y2="129.8"/>
			
				<path fill="none" stroke="#10658C" stroke-width="2.2728" stroke-linecap="round" stroke-linejoin="round" stroke-miterlimit="10" d="
				M100.4,106.3v25.1c0,2.8,2.3,5.1,5.1,5.1H119l14.8,6.5"/>
			
				<path fill="none" stroke="#10658C" stroke-width="2.2728" stroke-linecap="round" stroke-linejoin="round" stroke-miterlimit="10" d="
				M118.9,140.8c-1.9,4-0.2,8.8,3.8,10.7c2,0.9,4.2,1,6.1,0.3"/>
			
				<polyline fill="none" stroke="#10658C" stroke-width="2.2728" stroke-linecap="round" stroke-linejoin="round" stroke-miterlimit="10" points="
				100.4,110.5 17.6,110.5 17.6,116.7 100.4,116.7 			"/>
			
				<polyline fill="none" stroke="#10658C" stroke-width="2.2728" stroke-linecap="round" stroke-linejoin="round" stroke-miterlimit="10" points="
				21.9,116.7 21.9,120.9 100.4,120.9 			"/>
			
				<polyline fill="none" stroke="#10658C" stroke-width="2.2728" stroke-linecap="round" stroke-linejoin="round" stroke-miterlimit="10" points="
				19.4,110.5 19.4,105.3 35.1,110.5 			"/>
			
				<path fill="none" stroke="#10658C" stroke-width="2.2728" stroke-linecap="round" stroke-linejoin="round" stroke-miterlimit="10" d="
				M142.7,116.7l6.7-8.8c0,0-4.5-3.1-10.1,2.6c0,0-2.6-5.2-9.9-5.2c-7.3,0-22.4,0-22.4,0"/>
			
				<circle fill="none" stroke="#10658C" stroke-width="2.2728" stroke-linecap="round" stroke-linejoin="round" stroke-miterlimit="10" cx="166.3" cy="158.2" r="3.5"/>
			
				<line fill="none" stroke="#10658C" stroke-width="2.2728" stroke-linecap="round" stroke-linejoin="round" stroke-miterlimit="10" x1="177" y1="168.1" x2="156.1" y2="168.1"/>
			
				<line fill="none" stroke="#10658C" stroke-width="4.5456" stroke-linecap="round" stroke-linejoin="round" stroke-miterlimit="10" x1="108.2" y1="120.2" x2="128.2" y2="120.2"/>
		</g>
	</g>
	<g>
		<g>
			<g>
				<g>
					
						<circle fill="none" stroke="#10658C" stroke-width="2.2728" stroke-linecap="round" stroke-linejoin="round" stroke-miterlimit="10" cx="69.5" cy="163.7" r="7"/>
					
						<circle fill="none" stroke="#10658C" stroke-width="2.2728" stroke-linecap="round" stroke-linejoin="round" stroke-miterlimit="10" cx="70.7" cy="173.5" r="17.7"/>
					
						<path fill="none" stroke="#10658C" stroke-width="2.2728" stroke-linecap="round" stroke-linejoin="round" stroke-miterlimit="10" d="
						M54.2,167.1c0,0-10.5-11.6,1.1-21.8s23.6-7.9,25.4-11.5c0,0,31.5,24.4,8.2,42.1"/>
					
						<path fill="none" stroke="#10658C" stroke-width="2.2728" stroke-linecap="round" stroke-linejoin="round" stroke-miterlimit="10" d="
						M70.6,155.8c0,0,22.1,10.2,2.3,35.3"/>
					
						<path fill="none" stroke="#10658C" stroke-width="2.2728" stroke-linecap="round" stroke-linejoin="round" stroke-miterlimit="10" d="
						M76.4,162.8c0,0,2.4,16.6-23.4,10.9"/>
					
						<path fill="none" stroke="#10658C" stroke-width="2.2728" stroke-linecap="round" stroke-linejoin="round" stroke-miterlimit="10" d="
						M54.2,167.1c0,0-10.5-11.6,1.1-21.8s23.6-7.9,25.4-11.5c0,0,31.5,24.4,8.2,42.1"/>
					
						<path fill="none" stroke="#10658C" stroke-width="2.2728" stroke-linecap="round" stroke-linejoin="round" stroke-miterlimit="10" d="
						M52.9,170.2c-24.6,16,5.1,42.6,5.1,42.6c2.1-3.5,13.9-0.3,26.2-9.6s2.7-21.6,2.7-21.6s9-6.3,19.8-1.7"/>
					
						<path fill="none" stroke="#10658C" stroke-width="2.2728" stroke-linecap="round" stroke-linejoin="round" stroke-miterlimit="10" d="
						M57.5,143.6c-4.3-1.5-10.9-2.1-19,2.6c-14.6,8.5-8.2,17.6-15,19.8c0,0,1.2,28.3,21.1,27.9"/>
					
						<path fill="none" stroke="#10658C" stroke-width="2.2728" stroke-linecap="round" stroke-linejoin="round" stroke-miterlimit="10" d="
						M81.2,205.2c4.3,1.5,10.9,2.1,19-2.6c14.6-8.5,8.2-17.6,15-19.8c0,0-1.1-25.9-18.6-27.8"/>
					
						<path fill="none" stroke="#10658C" stroke-width="2.2728" stroke-linecap="round" stroke-linejoin="round" stroke-miterlimit="10" d="
						M53.8,168.2c0,0-11.7,4.4-21.4,0"/>
					
						<path fill="none" stroke="#10658C" stroke-width="2.2728" stroke-linecap="round" stroke-linejoin="round" stroke-miterlimit="10" d="
						M76.5,156.8c0,0,4.2-3.6,3.3-12"/>
					
						<path fill="none" stroke="#10658C" stroke-width="2.2728" stroke-linecap="round" stroke-linejoin="round" stroke-miterlimit="10" d="
						M66.1,190.7c0,0,0.2,9.1-6.4,14"/>
				</g>
				
					<path fill="none" stroke="#10658C" stroke-width="2.2728" stroke-linecap="round" stroke-linejoin="round" stroke-miterlimit="10" d="
					M31.2,188c0,0-7.8,9.3-7.7,20.8c0,0,13.1,2.8,24.8-7.5"/>
			</g>
			
				<path fill="none" stroke="#10658C" stroke-width="2.2728" stroke-linecap="round" stroke-linejoin="round" stroke-miterlimit="10" d="
				M73.6,209.1c0,0,2.2,8.9,9.2,11.6c0,0,7.6-5.2,7.6-14.4"/>
			
				<path fill="none" stroke="#10658C" stroke-width="2.2728" stroke-linecap="round" stroke-linejoin="round" stroke-miterlimit="10" d="
				M45.4,143.2c0,0,1.2-9.3,7.5-14.3c0,0,8.8,3,9.9,11.3"/>
		</g>
		<g>
			<g>
				<g>
					
						<circle fill="none" stroke="#10658C" stroke-width="2.2728" stroke-linecap="round" stroke-linejoin="round" stroke-miterlimit="10" cx="235.2" cy="163.7" r="7"/>
					
						<circle fill="none" stroke="#10658C" stroke-width="2.2728" stroke-linecap="round" stroke-linejoin="round" stroke-miterlimit="10" cx="233.9" cy="173.5" r="17.7"/>
					
						<path fill="none" stroke="#10658C" stroke-width="2.2728" stroke-linecap="round" stroke-linejoin="round" stroke-miterlimit="10" d="
						M250.4,167.1c0,0,10.5-11.6-1.1-21.8c-11.6-10.2-23.6-7.9-25.4-11.5c0,0-31.5,24.4-8.2,42.1"/>
					
						<path fill="none" stroke="#10658C" stroke-width="2.2728" stroke-linecap="round" stroke-linejoin="round" stroke-miterlimit="10" d="
						M234,155.8c0,0-22.1,10.2-2.3,35.3"/>
					
						<path fill="none" stroke="#10658C" stroke-width="2.2728" stroke-linecap="round" stroke-linejoin="round" stroke-miterlimit="10" d="
						M228.2,162.8c0,0-2.4,16.6,23.4,10.9"/>
					
						<path fill="none" stroke="#10658C" stroke-width="2.2728" stroke-linecap="round" stroke-linejoin="round" stroke-miterlimit="10" d="
						M250.4,167.1c0,0,10.5-11.6-1.1-21.8c-11.6-10.2-23.6-7.9-25.4-11.5c0,0-31.5,24.4-8.2,42.1"/>
					
						<path fill="none" stroke="#10658C" stroke-width="2.2728" stroke-linecap="round" stroke-linejoin="round" stroke-miterlimit="10" d="
						M251.8,170.2c24.6,16-5.1,42.6-5.1,42.6c-2.1-3.5-13.9-0.3-26.2-9.6c-12.3-9.3-2.7-21.6-2.7-21.6s-9-6.3-19.8-1.7"/>
					
						<path fill="none" stroke="#10658C" stroke-width="2.2728" stroke-linecap="round" stroke-linejoin="round" stroke-miterlimit="10" d="
						M247.2,143.6c4.3-1.5,10.9-2.1,19,2.6c14.6,8.5,8.2,17.6,15,19.8c0,0-1.2,28.3-21.1,27.9"/>
					
						<path fill="none" stroke="#10658C" stroke-width="2.2728" stroke-linecap="round" stroke-linejoin="round" stroke-miterlimit="10" d="
						M223.4,205.2c-4.3,1.5-10.9,2.1-19-2.6c-14.6-8.5-8.2-17.6-15-19.8c0,0,1.1-25.9,18.6-27.8"/>
					
						<path fill="none" stroke="#10658C" stroke-width="2.2728" stroke-linecap="round" stroke-linejoin="round" stroke-miterlimit="10" d="
						M250.8,168.2c0,0,11.7,4.4,21.4,0"/>
					
						<path fill="none" stroke="#10658C" stroke-width="2.2728" stroke-linecap="round" stroke-linejoin="round" stroke-miterlimit="10" d="
						M228.1,156.8c0,0-4.2-3.6-3.3-12"/>
					
						<path fill="none" stroke="#10658C" stroke-width="2.2728" stroke-linecap="round" stroke-linejoin="round" stroke-miterlimit="10" d="
						M238.5,190.7c0,0-0.2,9.1,6.4,14"/>
				</g>
				
					<path fill="none" stroke="#10658C" stroke-width="2.2728" stroke-linecap="round" stroke-linejoin="round" stroke-miterlimit="10" d="
					M273.4,188c0,0,7.8,9.3,7.7,20.8c0,0-13.1,2.8-24.8-7.5"/>
			</g>
			
				<path fill="none" stroke="#10658C" stroke-width="2.2728" stroke-linecap="round" stroke-linejoin="round" stroke-miterlimit="10" d="
				M231,209.1c0,0-2.2,8.9-9.2,11.6c0,0-7.6-5.2-7.6-14.4"/>
			
				<path fill="none" stroke="#10658C" stroke-width="2.2728" stroke-linecap="round" stroke-linejoin="round" stroke-miterlimit="10" d="
				M259.2,143.2c0,0-1.2-9.3-7.5-14.3c0,0-8.8,3-9.9,11.3"/>
		</g>
	</g>
	
		<path fill="none" stroke="#E95F58" stroke-width="2.2728" stroke-linecap="round" stroke-linejoin="round" stroke-miterlimit="10" d="
		M90.4,105c11.9-22,35.2-36.9,62-36.9c26.7,0,49.9,14.8,61.9,36.7"/>
	
		<path fill="none" stroke="#E95F58" stroke-width="2.2728" stroke-linecap="round" stroke-linejoin="round" stroke-miterlimit="10" d="
		M190.7,197.7c-11,7.2-24.2,11.4-38.4,11.4c-14.2,0-27.3-4.2-38.4-11.4"/>
	
		<path fill="none" stroke="#E95F58" stroke-width="2.2728" stroke-linecap="round" stroke-linejoin="round" stroke-miterlimit="10" d="
		M272.9,126.3c0.4,4,0.6,8.2,0.6,12.3c0,2.1-0.1,4.2-0.2,6.2"/>
	
		<path fill="none" stroke="#E95F58" stroke-width="2.2728" stroke-linecap="round" stroke-linejoin="round" stroke-miterlimit="10" d="
		M36.3,103.3c15.1-49.8,61.3-86,116-86c54.4,0,100.4,35.8,115.8,85.2"/>
	
		<path fill="none" stroke="#E95F58" stroke-width="2.2728" stroke-linecap="round" stroke-linejoin="round" stroke-miterlimit="10" d="
		M31.3,144.8c-0.1-2.1-0.2-4.1-0.2-6.2c0-4.2,0.2-8.3,0.6-12.4"/>
	
		<path fill="none" stroke="#E95F58" stroke-width="2.2728" stroke-linecap="round" stroke-linejoin="round" stroke-miterlimit="10" d="
		M243.5,218.5c-22.2,25.3-54.8,41.3-91.2,41.3c-36.3,0-69-16-91.2-41.3"/>
	<g>
		<path fill="#10658C" d="M79.7,78.8L79.7,78.8c-3.5-3.5-3.8-9.1,0-12.8c1.9-1.9,3.5-2.7,5.5-3c0.4-0.1,0.9,0,1.3,0.4
			c0.6,0.6,0.6,1.6,0,2.2c-0.3,0.3-0.6,0.4-0.9,0.4c-1.4,0.2-2.6,0.7-4,2c-2.3,2.3-2,6,0.3,8.4l0,0c2.5,2.5,6.1,2.7,8.6,0.2
			c1.2-1.2,1.9-2.6,2.1-3.9l-2.3-2.3l-2.4,2.4c-0.5,0.5-1.4,0.6-1.9,0c-0.5-0.5-0.5-1.4,0-1.9l3.4-3.4c0.6-0.6,1.6-0.6,2.2,0
			l3.3,3.3c0.6,0.6,0.8,1.3,0.6,2.1c-0.4,1.8-1.2,3.9-3.1,5.7C88.6,82.6,83.3,82.4,79.7,78.8z"/>
		<path fill="#10658C" d="M99.1,62.9l-4.4-7.5c-0.4-0.7-0.2-1.7,0.6-2.1c0.7-0.4,1.7-0.2,2.1,0.6l4.3,7.4c1.6,2.8,4,3.5,6.3,2.1
			c2.4-1.4,3-3.6,1.4-6.4l-4.4-7.5c-0.4-0.7-0.2-1.7,0.6-2.1c0.7-0.4,1.7-0.2,2.1,0.6l4.3,7.4c2.6,4.5,1.4,8.3-2.6,10.6
			C105.4,68.1,101.6,67.3,99.1,62.9z"/>
		<path fill="#10658C" d="M118.1,43.5c-0.2-0.8,0.2-1.7,1.1-1.9l0.3-0.1c0.7-0.2,1.2,0.1,1.8,0.4l11.4,8.6l-2.8-10.4
			c-0.2-0.8,0.3-1.6,1.1-1.8c0.8-0.2,1.6,0.2,1.9,1l3.9,14.2c0.2,0.8-0.2,1.6-1,1.9l-0.1,0c-0.7,0.2-1.2-0.1-1.8-0.5L122,46.2
			l2.9,10.7c0.2,0.8-0.3,1.6-1.1,1.8c-0.8,0.2-1.6-0.2-1.9-1L118.1,43.5z"/>
		<path fill="#10658C" d="M144,52.2c-0.4-0.2-0.6-0.7-0.6-1.2c0-0.8,0.6-1.4,1.4-1.5c0.4,0,0.7,0.1,0.9,0.3c1.5,1.1,3,1.7,4.9,1.7
			s3.1-1,3-2.3l0-0.1c0-1.2-0.7-1.9-4-2.6c-3.7-0.8-5.9-1.9-5.9-5.1l0,0c-0.1-3,2.4-5.1,5.9-5.2c2.2-0.1,4,0.5,5.6,1.5
			c0.4,0.2,0.7,0.6,0.7,1.2c0,0.8-0.6,1.4-1.4,1.5c-0.3,0-0.6-0.1-0.8-0.2c-1.4-0.8-2.7-1.3-4.1-1.2c-1.8,0-2.8,1-2.8,2.1l0,0
			c0,1.3,0.8,1.9,4.2,2.7c3.7,0.8,5.6,2.1,5.7,5l0,0.1c0.1,3.3-2.5,5.3-6.1,5.4C148.3,54.3,146,53.6,144,52.2z"/>
		<path fill="#10658C" d="M178.2,48c0.9,0.3,1.5,1.2,1.2,2.1l-0.1,0.2c-0.3,1-1.2,1.5-2.2,1.2c-1-0.3-1.5-1.2-1.2-2.2l0.1-0.2
			C176.3,48.3,177.2,47.8,178.2,48z"/>
		<path fill="#10658C" d="M203,51.1c0.5-0.7,1.4-0.9,2.2-0.4l0.3,0.2c0.6,0.4,0.8,1,0.8,1.6l0.9,14.3l6-8.9c0.5-0.7,1.4-0.9,2.1-0.4
			c0.7,0.5,0.9,1.4,0.4,2.1l-8.2,12.2c-0.5,0.7-1.4,0.9-2.1,0.4l-0.1-0.1c-0.6-0.4-0.8-1-0.8-1.7l-0.9-14.7l-6.2,9.2
			c-0.5,0.7-1.4,0.9-2.1,0.4c-0.7-0.5-0.9-1.4-0.4-2.1L203,51.1z"/>
		<path fill="#10658C" d="M227.7,81.6c0.6,0.8,0.5,1.8-0.3,2.4l-0.2,0.1c-0.8,0.6-1.9,0.5-2.5-0.3c-0.6-0.8-0.5-1.9,0.3-2.5l0.2-0.1
			C226,80.6,227.1,80.8,227.7,81.6z"/>
	</g>
	<g>
		<path fill="#10658C" d="M104.3,213c0.4-0.8,1.4-1,2.1-0.6l5.4,3.1c1.9,1.1,3.1,2.5,3.5,4c0.3,1.3,0.1,2.7-0.6,4l0,0
			c-1.4,2.4-3.6,3.1-6,2.6l0.8,5.3c0.1,0.5,0.1,0.9-0.1,1.3c-0.4,0.7-1.3,0.9-2,0.5c-0.6-0.3-0.8-0.9-0.9-1.4l-1-6.8l-3.4-1.9
			l-2.3,4.1c-0.4,0.7-1.3,1-2.1,0.6c-0.8-0.4-1-1.4-0.6-2.1L104.3,213z M107.4,223c1.9,1.1,3.7,0.8,4.6-0.8l0,0
			c0.9-1.6,0.3-3.2-1.7-4.3l-3.9-2.2l-2.9,5.1L107.4,223z"/>
		<path fill="#10658C" d="M122,230.2L122,230.2c1.2-4.8,5.9-7.9,11.1-6.6c5.2,1.3,7.9,6.1,6.7,10.9l0,0c-1.2,4.8-5.9,7.9-11.1,6.6
			C123.5,239.8,120.8,235,122,230.2z M136.6,233.8L136.6,233.8c0.8-3.3-0.9-6.7-4.3-7.5c-3.4-0.8-6.4,1.3-7.2,4.6l0,0
			c-0.8,3.3,0.9,6.6,4.3,7.4C132.8,239.2,135.8,237.1,136.6,233.8z"/>
		<path fill="#10658C" d="M149.6,242c-0.4-0.2-0.6-0.7-0.6-1.2c0-0.8,0.6-1.4,1.4-1.5c0.4,0,0.7,0.1,0.9,0.3c1.5,1.1,3,1.7,4.9,1.7
			c1.9,0,3.1-1,3.1-2.3l0-0.1c0-1.2-0.7-1.9-4-2.6c-3.7-0.8-5.9-1.9-5.9-5.1v0c-0.1-3,2.4-5.1,5.9-5.2c2.2,0,4,0.5,5.6,1.5
			c0.4,0.2,0.7,0.6,0.7,1.2c0,0.8-0.6,1.4-1.4,1.5c-0.3,0-0.6-0.1-0.8-0.2c-1.4-0.9-2.7-1.3-4-1.3c-1.8,0-2.8,1-2.8,2.1l0,0
			c0,1.3,0.8,1.9,4.2,2.7c3.7,0.8,5.6,2.1,5.7,5v0c0.1,3.3-2.5,5.3-6.2,5.3C153.8,244.1,151.5,243.4,149.6,242z"/>
		<path fill="#10658C" d="M174.1,240.5l-3.6-13.9c-0.2-0.8,0.3-1.7,1.1-1.9l9.8-2.6c0.7-0.2,1.5,0.3,1.7,1c0.2,0.8-0.3,1.5-1,1.7
			l-8.4,2.2l1.1,4.4l7.3-1.9c0.7-0.2,1.5,0.3,1.7,1c0.2,0.7-0.3,1.5-1,1.7l-7.3,1.9l1.2,4.5l8.5-2.2c0.7-0.2,1.5,0.3,1.7,1
			c0.2,0.7-0.3,1.5-1,1.7l-10,2.6C175.1,241.8,174.3,241.4,174.1,240.5z"/>
		<path fill="#10658C" d="M197.2,232.6c-0.4-0.1-0.8-0.3-1.1-0.7c-0.4-0.7-0.1-1.6,0.6-1.9c0.4-0.2,0.7-0.2,0.9-0.2
			c1.8,0.3,3.5,0.2,5.2-0.7c1.7-0.9,2.3-2.3,1.7-3.4l0,0c-0.6-1.1-1.5-1.4-4.7-0.5c-3.7,1-6.1,1-7.6-1.8l0,0
			c-1.4-2.6-0.2-5.7,2.8-7.3c1.9-1,3.8-1.4,5.7-1.2c0.4,0,0.9,0.2,1.2,0.8c0.4,0.7,0.1,1.6-0.6,1.9c-0.3,0.1-0.5,0.2-0.8,0.2
			c-1.6-0.1-3,0.1-4.2,0.7c-1.6,0.9-2.1,2.2-1.5,3.2l0,0c0.6,1.2,1.6,1.3,5,0.4c3.7-1,6-0.7,7.4,1.8l0,0c1.6,2.9,0.2,5.8-3,7.6
			C201.9,232.5,199.6,232.9,197.2,232.6z"/>
	</g>
</g>
</svg>
