<?xml version="1.0" encoding="utf-8"?>
<!-- Generator: Adobe Illustrator 18.0.0, SVG Export Plug-In . SVG Version: 6.00 Build 0)  -->
<!DOCTYPE svg PUBLIC "-//W3C//DTD SVG 1.1//EN" "http://www.w3.org/Graphics/SVG/1.1/DTD/svg11.dtd">
<svg version="1.1" id="Layer_1" xmlns="http://www.w3.org/2000/svg" xmlns:xlink="http://www.w3.org/1999/xlink" x="0px" y="0px"
	 viewBox="0 0 424.6 200.5" enable-background="new 0 0 424.6 200.5" xml:space="preserve">
<g>
	<g>
		<g>
			<path fill="#10658C" d="M269.2,110.3H155.4c-3,0-5.5-2.5-5.5-5.5s2.5-5.5,5.5-5.5h113.8c3,0,5.5,2.5,5.5,5.5
				S272.2,110.3,269.2,110.3z M155.4,102.3c-1.4,0-2.5,1.1-2.5,2.5s1.1,2.5,2.5,2.5h113.8c1.4,0,2.5-1.1,2.5-2.5s-1.1-2.5-2.5-2.5
				H155.4z"/>
			<path fill="#10658C" d="M257.7,102.3h-90.8c-0.8,0-1.4-0.6-1.5-1.4L160,23.1c-0.2-2.8,0.8-5.5,2.7-7.6c1.9-2,4.6-3.2,7.4-3.2
				h84.4c2.8,0,5.5,1.2,7.4,3.2c1.9,2,2.9,4.8,2.7,7.6l-5.3,77.8C259.2,101.7,258.5,102.3,257.7,102.3z M168.3,99.3h88l5.2-76.4
				c0.1-2-0.5-3.9-1.9-5.3c-1.4-1.5-3.2-2.3-5.2-2.3h-84.4c-2,0-3.8,0.8-5.2,2.3c-1.4,1.5-2,3.3-1.9,5.3L168.3,99.3z"/>
			<path fill="#10658C" d="M212.3,100.6c-6.2,0-11.2-5-11.2-11.2c0-6.2,5-11.2,11.2-11.2s11.2,5,11.2,11.2
				C223.5,95.6,218.4,100.6,212.3,100.6z M212.3,81.3c-4.5,0-8.2,3.7-8.2,8.2c0,4.5,3.7,8.2,8.2,8.2s8.2-3.7,8.2-8.2
				C220.5,84.9,216.8,81.3,212.3,81.3z"/>
			<g>
				<path fill="#10658C" d="M184.5,97.3c-4.3,0-7.8-3.5-7.8-7.8c0-4.3,3.5-7.8,7.8-7.8c4.3,0,7.8,3.5,7.8,7.8
					C192.3,93.8,188.8,97.3,184.5,97.3z M184.5,84.6c-2.7,0-4.8,2.2-4.8,4.8c0,2.7,2.2,4.8,4.8,4.8c2.7,0,4.8-2.2,4.8-4.8
					C189.3,86.8,187.1,84.6,184.5,84.6z"/>
				<path fill="#10658C" d="M240.1,97.3c-4.3,0-7.8-3.5-7.8-7.8c0-4.3,3.5-7.8,7.8-7.8c4.3,0,7.8,3.5,7.8,7.8
					C247.9,93.8,244.4,97.3,240.1,97.3z M240.1,84.6c-2.7,0-4.8,2.2-4.8,4.8c0,2.7,2.2,4.8,4.8,4.8c2.7,0,4.8-2.2,4.8-4.8
					C244.9,86.8,242.7,84.6,240.1,84.6z"/>
			</g>
			<path fill="#10658C" d="M179.3,87.4h-13c-0.8,0-1.5-0.7-1.5-1.5s0.7-1.5,1.5-1.5h13c0.8,0,1.5,0.7,1.5,1.5S180.1,87.4,179.3,87.4
				z"/>
			<path fill="#10658C" d="M203.3,87.4h-13.6c-0.8,0-1.5-0.7-1.5-1.5s0.7-1.5,1.5-1.5h13.6c0.8,0,1.5,0.7,1.5,1.5
				S204.1,87.4,203.3,87.4z"/>
			<path fill="#10658C" d="M234.9,87.4h-13.6c-0.8,0-1.5-0.7-1.5-1.5s0.7-1.5,1.5-1.5h13.6c0.8,0,1.5,0.7,1.5,1.5
				S235.7,87.4,234.9,87.4z"/>
			<path fill="#10658C" d="M257.4,87.4h-12.1c-0.8,0-1.5-0.7-1.5-1.5s0.7-1.5,1.5-1.5h12.1c0.8,0,1.5,0.7,1.5,1.5
				S258.2,87.4,257.4,87.4z"/>
			<path fill="#10658C" d="M179.3,94.5h-12.2c-0.8,0-1.5-0.7-1.5-1.5s0.7-1.5,1.5-1.5h12.2c0.8,0,1.5,0.7,1.5,1.5
				S180.1,94.5,179.3,94.5z"/>
			<path fill="#10658C" d="M203.3,94.5h-13.6c-0.8,0-1.5-0.7-1.5-1.5s0.7-1.5,1.5-1.5h13.6c0.8,0,1.5,0.7,1.5,1.5
				S204.1,94.5,203.3,94.5z"/>
			<path fill="#10658C" d="M234.9,94.5h-13.6c-0.8,0-1.5-0.7-1.5-1.5s0.7-1.5,1.5-1.5h13.6c0.8,0,1.5,0.7,1.5,1.5
				S235.7,94.5,234.9,94.5z"/>
			<path fill="#10658C" d="M257.4,94.5h-12.1c-0.8,0-1.5-0.7-1.5-1.5s0.7-1.5,1.5-1.5h12.1c0.8,0,1.5,0.7,1.5,1.5
				S258.2,94.5,257.4,94.5z"/>
			<path fill="#10658C" d="M210.2,69.1c-19.5,0-30.6-3.2-31.3-3.4c-0.8-0.2-1.2-1.1-1-1.9c0.2-0.8,1.1-1.2,1.9-1
				c0.1,0,6.3,1.9,17.6,2.8c10.4,0.8,27.3,1,48.8-2.8c0.8-0.1,1.6,0.4,1.7,1.2c0.1,0.8-0.4,1.6-1.2,1.7
				C232.4,68.3,220.2,69.1,210.2,69.1z"/>
			<circle fill="#E95F58" cx="212.3" cy="89.4" r="6"/>
			<g>
				<circle fill="#E95F58" cx="184.5" cy="89.4" r="3"/>
				<circle fill="#E95F58" cx="240.1" cy="89.4" r="3"/>
			</g>
		</g>
		<g>
			<path fill="#10658C" d="M163.5,189c-0.1,0-0.3,0-0.4,0c-1.3-0.2-2.1-1.2-2.8-1.9c-0.3-0.3-0.7-0.8-0.9-0.9
				c-0.2,0-0.9,0.2-1.3,0.3c-1,0.3-2.2,0.6-3.3,0.1c-1.2-0.5-1.7-1.7-2.1-2.7c-0.2-0.4-0.4-1-0.6-1.1c-0.2-0.1-0.9-0.1-1.3-0.1
				c-1,0-2.3,0-3.2-0.9c-0.9-0.8-1-2.1-1.1-3.1c0-0.4-0.1-1-0.2-1.2c-0.1-0.1-0.7-0.3-1.1-0.4c-1-0.3-2.2-0.7-2.8-1.8
				c-0.6-1.1-0.3-2.3-0.1-3.3c0.1-0.4,0.2-1,0.2-1.2c-0.1-0.1-0.6-0.5-0.9-0.7c-0.8-0.6-1.8-1.4-2.1-2.6c-0.2-1.2,0.5-2.3,1-3.1
				c0.2-0.3,0.6-0.9,0.6-1.1c0-0.6-0.2-0.9-0.6-1.4c-0.6-0.7-1.4-1.6-1.4-3.3c0-1.7,0.8-2.7,1.4-3.3c0.4-0.5,0.6-0.8,0.6-1.4
				c0-0.6-0.2-0.9-0.6-1.4c-0.6-0.7-1.4-1.6-1.4-3.4c0-1.7,0.8-2.7,1.4-3.4c0.4-0.5,0.6-0.8,0.6-1.4c0-0.6-0.2-0.9-0.6-1.4
				c-0.6-0.7-1.4-1.6-1.4-3.4c0-1.4,0.9-2.5,1.7-3.4c0.4-0.5,0.9-1.1,1-1.5c0.1-0.4-0.1-1.1-0.2-1.7c-0.3-1.1-0.6-2.4-0.1-3.7
				c0.5-1.2,1.6-1.9,2.5-2.5c0.6-0.4,1.2-0.8,1.4-1.1c0.2-0.4,0.1-1.1,0-1.8c-0.1-1.1-0.2-2.3,0.3-3.4c0.5-1.1,1.6-1.8,2.5-2.4
				c0.5-0.3,1.2-0.8,1.3-1.1c0.3-0.8,1.2-1.1,1.9-0.8c0.8,0.3,1.1,1.2,0.8,1.9c-0.5,1.2-1.5,1.9-2.5,2.5c-0.6,0.4-1.2,0.8-1.4,1.2
				c-0.2,0.3-0.1,1.1,0,1.8c0.1,1.1,0.2,2.3-0.3,3.4c-0.5,1.1-1.5,1.7-2.4,2.3c-0.6,0.4-1.2,0.8-1.4,1.2c-0.1,0.4,0,1.2,0.2,1.9
				c0.2,1,0.5,2.1,0.2,3.1c-0.3,1-1,1.9-1.6,2.6c-0.4,0.5-1,1.2-1,1.5c0,0.6,0.2,0.9,0.6,1.4c0.6,0.7,1.4,1.6,1.4,3.4
				s-0.8,2.7-1.4,3.4c-0.4,0.5-0.6,0.8-0.6,1.4c0,0.6,0.2,0.9,0.6,1.4c0.6,0.7,1.4,1.6,1.4,3.4c0,1.7-0.8,2.7-1.4,3.3
				c-0.4,0.5-0.6,0.8-0.6,1.4s0.2,0.9,0.6,1.4c0.6,0.7,1.4,1.6,1.4,3.3c0,1.1-0.6,1.9-1.1,2.7c-0.2,0.3-0.5,0.7-0.6,0.9
				c0.2,0.2,0.6,0.5,0.9,0.7c0.7,0.5,1.6,1.2,1.9,2.2c0.4,1,0.1,2-0.1,2.9c-0.1,0.3-0.2,0.9-0.2,1.1c0.2,0.1,0.7,0.3,1.1,0.4
				c0.9,0.3,1.9,0.6,2.5,1.4c0.7,0.8,0.7,1.9,0.8,2.8c0,0.4,0.1,0.9,0.2,1.1c0.2,0.1,0.9,0.1,1.2,0.1c0.9,0,2,0,2.9,0.6
				c0.9,0.6,1.3,1.6,1.7,2.4c0.2,0.4,0.4,1,0.6,1.2c0.1,0,0.8-0.2,1.2-0.3c0.9-0.3,1.9-0.6,3-0.3c1,0.3,1.7,1.1,2.3,1.8
				c0.3,0.3,0.7,0.9,0.9,0.9c0.1,0,0.7-0.4,1.1-0.6c0.8-0.5,1.7-1.1,2.8-1.1c1.1,0,2,0.6,2.9,1.1c0.4,0.2,1,0.6,1.2,0.6
				c0.2-0.1,0.7-0.6,1-1c0.6-0.7,1.3-1.5,2.3-1.8c1-0.3,2.1-0.1,3,0.2c0.4,0.1,1.1,0.3,1.3,0.2c0.2-0.1,0.5-0.8,0.6-1.2
				c0.4-0.9,0.8-1.9,1.7-2.5c0.9-0.6,2-0.7,2.9-0.8c0.4,0,1.2-0.1,1.4-0.2c0.6-0.6,1.5-0.6,2.1,0c0.6,0.6,0.6,1.5,0,2.1
				c-0.9,0.9-2.2,1-3.2,1.1c-0.4,0-1.2,0.1-1.4,0.2c-0.2,0.1-0.5,0.8-0.6,1.2c-0.4,1-0.9,2.2-2.1,2.7c-1.1,0.6-2.4,0.2-3.4,0
				c-0.4-0.1-1.2-0.3-1.4-0.2c-0.2,0.1-0.7,0.6-1,0.9c-0.7,0.8-1.6,1.8-2.8,2c-1.2,0.2-2.3-0.5-3.2-1c-0.4-0.3-1-0.6-1.3-0.6
				c-0.2,0-0.8,0.4-1.2,0.6C165.5,188.4,164.6,189,163.5,189z"/>
			<path fill="#10658C" d="M257.2,189.3c-1.3,0-2.2-0.8-3-1.5c-0.3-0.3-0.8-0.7-1-0.7c-0.2,0-0.8,0.3-1.1,0.5c-0.9,0.4-2,1-3.2,0.6
				c-1.2-0.3-1.9-1.4-2.4-2.3c-0.2-0.3-0.5-0.9-0.7-1c-0.2-0.1-0.8,0.1-1.2,0.1c-1,0.2-2.2,0.4-3.3-0.3c-1.1-0.7-1.4-1.9-1.7-2.9
				c-0.1-0.4-0.3-1-0.4-1.2c-0.6-0.5-0.7-1.5-0.1-2.1c0.5-0.6,1.5-0.7,2.1-0.1c0.8,0.7,1.1,1.7,1.3,2.6c0.1,0.4,0.2,0.9,0.4,1.1
				c0.2,0,0.8-0.1,1.2-0.1c0.9-0.2,2-0.3,3,0.1c1,0.4,1.5,1.3,2,2.1c0.2,0.3,0.5,0.8,0.7,1c0.2,0,0.8-0.3,1.1-0.4
				c0.9-0.4,1.8-0.9,2.9-0.7c1,0.1,1.8,0.9,2.5,1.5c0.3,0.2,0.7,0.6,0.9,0.7c0.2-0.1,0.6-0.5,0.8-0.7c0.7-0.6,1.4-1.4,2.5-1.5
				c1.1-0.1,2,0.4,2.8,0.8c0.3,0.1,0.7,0.4,0.9,0.4c0.2-0.2,0.4-0.6,0.6-0.9c0.5-0.8,1-1.7,2-2.1c1-0.4,2-0.2,2.9,0
				c0.3,0.1,0.8,0.2,1,0.2c0.1-0.2,0.2-0.7,0.3-1c0.2-0.9,0.5-1.9,1.3-2.6c0.8-0.7,1.9-0.8,2.8-0.9c0.4-0.1,1.1-0.2,1.3-0.3
				c0.1-0.2,0.1-0.9,0.1-1.3c0-0.9,0-2,0.6-2.9c0.6-0.9,1.5-1.4,2.3-1.8c0.4-0.2,1-0.5,1.2-0.7c0-0.2-0.2-0.9-0.4-1.3
				c-0.3-0.9-0.7-1.9-0.5-2.9c0.2-1,0.9-1.8,1.5-2.5c0.3-0.3,0.8-0.9,0.8-1.1c0-0.6-0.2-0.9-0.7-1.4c-0.6-0.7-1.3-1.6-1.3-3.4
				s0.8-2.7,1.3-3.4c0.4-0.5,0.7-0.8,0.7-1.4c0-0.6-0.2-0.9-0.6-1.4c-0.6-0.7-1.4-1.6-1.4-3.4c0-1.7,0.8-2.7,1.4-3.3
				c0.4-0.5,0.6-0.8,0.6-1.4s-0.2-0.9-0.6-1.4c-0.6-0.7-1.4-1.6-1.4-3.3c0-0.9,0.4-1.7,0.8-2.5c0.3-0.7,0.7-1.5,0.6-2.1
				c-0.1-0.3-0.7-0.9-1.1-1.2c-0.8-0.7-1.7-1.5-2.1-2.7c-0.4-1.1-0.1-2.3,0.1-3.4c0.1-0.6,0.3-1.4,0.2-1.7c-0.2-0.4-0.9-0.9-1.5-1.4
				c-0.9-0.6-1.7-1.2-2.2-2.2c-1-2.3-0.5-4.5-0.2-5.5c0-0.1,0-0.1,0-0.2c0-0.6,0.4-1.1,0.9-1.4c0.8-0.3,1.6,0.1,1.9,0.8
				c0.2,0.5,0.1,0.9,0,1.4c-0.2,0.8-0.5,2.3,0.1,3.7c0.1,0.2,0.8,0.7,1.1,1c0.9,0.6,2,1.4,2.5,2.7c0.4,1.1,0.2,2.4,0,3.4
				c-0.1,0.7-0.3,1.4-0.2,1.8c0.1,0.4,0.7,0.9,1.2,1.4c0.8,0.7,1.8,1.6,2,2.8c0.4,1.5-0.3,2.9-0.8,4c-0.2,0.4-0.5,1-0.5,1.3
				c0,0.6,0.2,0.9,0.6,1.4c0.6,0.7,1.4,1.6,1.4,3.3c0,1.7-0.8,2.7-1.4,3.3c-0.4,0.5-0.6,0.8-0.6,1.4c0,0.6,0.2,0.9,0.6,1.4
				c0.6,0.7,1.4,1.6,1.4,3.4c0,1.7-0.8,2.7-1.3,3.4c-0.4,0.5-0.7,0.8-0.7,1.4c0,0.6,0.2,0.9,0.7,1.4c0.6,0.7,1.3,1.6,1.3,3.4
				c0,1.3-0.9,2.3-1.6,3.1c-0.3,0.3-0.8,0.8-0.8,1.1c0,0.2,0.2,0.9,0.4,1.3c0.4,1,0.8,2.2,0.4,3.4c-0.5,1.2-1.6,1.8-2.6,2.3
				c-0.4,0.2-1,0.5-1.2,0.7c-0.1,0.2-0.1,0.9-0.1,1.3c0,1,0,2.4-0.9,3.3c-0.8,1-2.1,1.1-3.2,1.3c-0.4,0.1-1.2,0.2-1.3,0.3
				c-0.1,0.1-0.3,0.7-0.3,1c-0.3,1-0.6,2.2-1.7,2.8c-1,0.6-2.3,0.4-3.2,0.1c-0.4-0.1-1-0.2-1.1-0.2c-0.1,0.1-0.4,0.6-0.6,0.9
				c-0.5,0.9-1.2,1.9-2.4,2.2c-1.2,0.3-2.3-0.3-3.1-0.7c-0.3-0.2-0.9-0.5-1.1-0.5c-0.1,0.1-0.5,0.5-0.8,0.7
				C259.3,188.4,258.4,189.3,257.2,189.3z"/>
		</g>
		<g>
			<g>
				<path fill="#10658C" d="M214.5,118.4h-4.4c-0.8,0-1.5-0.7-1.5-1.5s0.7-1.5,1.5-1.5h4.4c0.8,0,1.5,0.7,1.5,1.5
					S215.3,118.4,214.5,118.4z"/>
				<path fill="#10658C" d="M231.5,115.4h-0.3c-5.9,0-14.5,0-15.9,6.4c-0.9-0.5-1.9-0.8-3-0.8s-2.1,0.3-3,0.8
					c-1.5-6.4-10.1-6.4-15.9-6.4h-0.3c-13.2,0-14.9,7.5-14.9,14.1c0,9.1,6.6,15.2,12.8,15.2c0.7,0,1.5-0.1,2.2-0.2
					c8.6-1.7,14.8-8.4,16.1-17.2c0-0.1,0.1-0.2,0.1-0.4c0-0.1,0-0.2,0-0.3c0-0.1,0-0.2,0-0.3c0.3-1.3,1.5-2.4,2.9-2.4s2.6,1,2.9,2.4
					c0,0.1,0,0.2,0,0.3c0,0.1,0,0.2,0,0.3c0,0.1,0,0.2,0.1,0.4c1.3,8.8,7.4,15.5,16.1,17.2c0.7,0.1,1.5,0.2,2.2,0.2c0,0,0,0,0,0
					c3.6,0,7-1.8,9.4-5.1c2.2-2.9,3.4-6.6,3.4-10.2C246.4,122.9,244.7,115.4,231.5,115.4z"/>
			</g>
		</g>
	</g>
	<g>
		<path fill="#10658C" d="M131.1,105.4c-0.1,0-0.3,0-0.4,0L61.6,87.5c-0.7-0.2-1.1-0.8-1.1-1.4s0.4-1.3,1.1-1.5l9.3-2.6L15,67.3
			c-0.8-0.2-1.3-1-1.1-1.8c0.2-0.8,1-1.3,1.8-1.1l61.1,16.1c0.7,0.2,1.1,0.8,1.1,1.4s-0.4,1.3-1.1,1.5L67.7,86l63.8,16.5
			c0.8,0.2,1.3,1,1.1,1.8C132.3,104.9,131.7,105.4,131.1,105.4z"/>
		<path fill="#10658C" d="M71.2,140.4c-0.6,0-1.1-0.3-1.4-0.9c-0.3-0.8,0-1.6,0.7-2l26.2-12c0.5-0.2,1-0.2,1.4,0.1
			c0.4,0.3,0.7,0.8,0.7,1.3v5.8l24.9-11.6c0.8-0.4,1.6,0,2,0.7c0.4,0.8,0,1.6-0.7,2l-27,12.6c-0.5,0.2-1,0.2-1.4-0.1
			s-0.7-0.8-0.7-1.3v-5.8l-24.1,11C71.6,140.4,71.4,140.4,71.2,140.4z"/>
		<path fill="#10658C" d="M137.9,89.6c-0.4,0-0.8-0.1-1.1-0.4l-21.2-21c-0.4-0.4-0.5-0.9-0.4-1.4c0.1-0.5,0.5-0.9,0.9-1.1l5.4-2
			L103,44.9c-0.6-0.6-0.6-1.5,0-2.1s1.5-0.6,2.1,0l20.3,20.4c0.4,0.4,0.5,0.9,0.4,1.4c-0.1,0.5-0.5,0.9-0.9,1.1l-5.4,2L139,87
			c0.6,0.6,0.6,1.5,0,2.1C138.7,89.4,138.3,89.6,137.9,89.6z"/>
		<path fill="#10658C" d="M293.5,105.4c-0.7,0-1.3-0.4-1.5-1.1c-0.2-0.8,0.3-1.6,1.1-1.8L356.9,86l-9.2-2.6
			c-0.6-0.2-1.1-0.8-1.1-1.5s0.5-1.3,1.1-1.4l61.1-16.1c0.8-0.2,1.6,0.3,1.8,1.1c0.2,0.8-0.3,1.6-1.1,1.8L353.8,82l9.3,2.6
			c0.7,0.2,1.1,0.8,1.1,1.5c0,0.7-0.5,1.3-1.1,1.4l-69.1,17.9C293.8,105.4,293.6,105.4,293.5,105.4z"/>
		<path fill="#10658C" d="M353.4,140.4c-0.2,0-0.4,0-0.6-0.1l-24.1-11v5.8c0,0.5-0.3,1-0.7,1.3c-0.4,0.3-1,0.3-1.4,0.1l-27-12.6
			c-0.8-0.4-1.1-1.2-0.7-2c0.4-0.8,1.2-1.1,2-0.7l24.9,11.6v-5.8c0-0.5,0.3-1,0.7-1.3c0.4-0.3,1-0.3,1.4-0.1l26.2,12
			c0.8,0.3,1.1,1.2,0.7,2C354.5,140.1,353.9,140.4,353.4,140.4z"/>
		<path fill="#10658C" d="M286.6,89.6c-0.4,0-0.8-0.1-1.1-0.4c-0.6-0.6-0.6-1.5,0-2.1l19.5-19.3l-5.4-2c-0.5-0.2-0.8-0.6-0.9-1.1
			c-0.1-0.5,0-1,0.4-1.4l20.3-20.4c0.6-0.6,1.5-0.6,2.1,0s0.6,1.5,0,2.1l-18.7,18.8l5.4,2c0.5,0.2,0.8,0.6,0.9,1.1s0,1-0.4,1.4
			l-21.2,21C287.4,89.4,287,89.6,286.6,89.6z"/>
	</g>
	<path fill="#59B5E1" d="M106.9,80.8c-0.2,0-0.4-0.1-0.6-0.2L58.6,47.1c-0.5-0.3-0.6-0.9-0.2-1.4c0.3-0.5,0.9-0.6,1.4-0.2L107.5,79
		c0.5,0.3,0.6,0.9,0.2,1.4C107.6,80.6,107.2,80.8,106.9,80.8z"/>
	<path fill="#59B5E1" d="M47.9,115.8c-0.5,0-1-0.4-1-0.9c0-0.6,0.4-1,0.9-1.1l47-3c0.5,0,1,0.4,1.1,0.9c0,0.6-0.4,1-0.9,1.1
		L47.9,115.8C48,115.8,48,115.8,47.9,115.8z"/>
	<path fill="#59B5E1" d="M322.9,76.8c-0.3,0-0.6-0.1-0.8-0.4c-0.3-0.4-0.3-1.1,0.2-1.4l33.5-26.5c0.4-0.3,1.1-0.3,1.4,0.2
		c0.3,0.4,0.3,1.1-0.2,1.4l-33.5,26.5C323.4,76.7,323.2,76.8,322.9,76.8z"/>
	<path fill="#59B5E1" d="M382.4,118.4c0,0-0.1,0-0.1,0l-42.8-5.6c-0.5-0.1-0.9-0.6-0.9-1.1c0.1-0.5,0.6-0.9,1.1-0.9l42.8,5.6
		c0.5,0.1,0.9,0.6,0.9,1.1C383.4,118.1,382.9,118.4,382.4,118.4z"/>
</g>
</svg>
